<svg width="29" height="29" viewBox="0 0 29 29" fill="none" xmlns="http://www.w3.org/2000/svg">
<path d="M28.5714 14.2857C28.5714 6.39429 22.1771 0 14.2857 0C6.39429 0 0 6.39429 0 14.2857C0 22.1771 4.61143 26.6057 10.8343 28.1486V18.6514H7.88571V14.2857H10.8343V12.4057C10.8343 7.54286 13.0343 5.29143 17.8057 5.29143C22.5771 5.29143 20.2743 5.46857 20.9086 5.64571V9.60571C20.5714 9.57143 19.9886 9.55429 19.2571 9.55429C16.9143 9.55429 16.0114 10.44 16.0114 12.7486V14.2914H20.68L19.88 18.6571H16.0171V28.4743C23.0914 27.6171 28.5714 21.5943 28.5714 14.2914V14.2857Z" fill="#664F34"/>
</svg>
