<svg width="28" height="28" viewBox="0 0 28 28" fill="none" xmlns="http://www.w3.org/2000/svg">
<g clip-path="url(#clip0_30_381)">
<path d="M19.7699 0.167075C21.2521 0.236727 22.2635 0.473543 23.1495 0.821802C24.0661 1.17842 24.8406 1.65762 25.6151 2.43215C26.3896 3.20668 26.8633 3.98678 27.2171 4.90339C27.5598 5.78936 27.7938 6.80349 27.8579 8.28568C27.922 9.77066 27.9387 10.2443 27.9303 14.0278C27.922 17.8113 27.9053 18.2849 27.8356 19.7699C27.766 21.2521 27.5292 22.2634 27.1809 23.1494C26.8243 24.066 26.3451 24.8405 25.5705 25.615C24.796 26.3868 24.0159 26.8632 23.0993 27.217C22.2133 27.5597 21.1992 27.7937 19.717 27.8578C18.232 27.9219 17.7556 27.9386 13.9749 27.9303C10.1914 27.9219 9.71781 27.9052 8.23005 27.8355C6.74786 27.7659 5.73652 27.5263 4.85055 27.1808C3.93393 26.8214 3.1594 26.345 2.38487 25.5705C1.61313 24.7959 1.13671 24.0158 0.782885 23.0992C0.440197 22.2132 0.206167 21.1991 0.142088 19.7169C0.0780087 18.2292 0.0612926 17.7555 0.0696507 13.9721C0.0780087 10.1886 0.0947266 9.71494 0.164377 8.22996C0.23403 6.74777 0.470846 5.73643 0.819103 4.85046C1.17572 3.93384 1.65492 3.15931 2.42945 2.38479C3.20398 1.61305 3.98408 1.13663 4.9007 0.782797C5.78667 0.44011 6.80079 0.20608 8.28298 0.142001C9.76796 0.075135 10.2444 0.0612046 14.0251 0.0695628C17.8086 0.077921 18.2822 0.0918514 19.7672 0.164289M19.6056 25.3476C20.9624 25.2891 21.7007 25.0634 22.1938 24.8739C22.8458 24.6232 23.3083 24.3195 23.7986 23.8347C24.2862 23.3472 24.5898 22.8847 24.8434 22.2355C25.0356 21.7452 25.2641 21.0069 25.3282 19.6501C25.3978 18.1818 25.4117 17.7416 25.4201 14.0222C25.4285 10.3028 25.4145 9.8626 25.3504 8.39434C25.2919 7.03752 25.0663 6.29921 24.8768 5.80887C24.6261 5.15693 24.3252 4.69444 23.8376 4.20409C23.35 3.71653 22.8876 3.41285 22.2384 3.15931C21.7481 2.96708 21.0097 2.73862 19.6529 2.67454C18.1847 2.60489 17.7445 2.59096 14.0251 2.5826C10.3057 2.57424 9.86547 2.58817 8.39443 2.65225C7.03761 2.71076 6.2993 2.93643 5.80895 3.12588C5.15701 3.37663 4.69453 3.67752 4.20418 4.16509C3.71662 4.65265 3.41294 5.11514 3.1594 5.76429C2.96716 6.25464 2.7387 6.99016 2.67463 8.34976C2.60497 9.81802 2.58826 10.2582 2.58269 13.9776C2.57433 17.697 2.58826 18.1372 2.65234 19.6055C2.71084 20.9623 2.93652 21.7006 3.12597 22.1937C3.37671 22.8429 3.67761 23.3082 4.16517 23.7985C4.65273 24.2861 5.11522 24.5898 5.76438 24.8433C6.25473 25.0355 6.99303 25.264 8.34985 25.3281C9.81811 25.3977 10.2583 25.4117 13.9777 25.42C17.6971 25.4284 18.1373 25.4144 19.6056 25.3504M8.24955 6.55275C8.24955 7.47494 7.49731 8.2216 6.57512 8.2216C5.65294 8.2216 4.90627 7.46936 4.90627 6.54717C4.90627 5.62499 5.65851 4.87832 6.5807 4.87832C7.50288 4.87832 8.24955 5.63056 8.24955 6.55275ZM21.1518 14.0138C21.1435 17.9645 17.9367 21.1601 13.9861 21.1518C10.0354 21.1434 6.8398 17.9366 6.84537 13.986C6.85373 10.0353 10.0633 6.83971 14.0139 6.84807C17.9646 6.85643 21.1602 10.066 21.1518 14.0138ZM18.6444 14.0083C18.6499 11.4451 16.5743 9.3611 14.0111 9.35553C11.448 9.34996 9.36398 11.4256 9.35841 13.9888C9.35283 16.552 11.4285 18.6359 13.9944 18.6415C16.5576 18.6471 18.6416 16.5715 18.6472 14.0083" fill="#664F34"/>
</g>
<defs>
<clipPath id="clip0_30_381">
<rect width="28" height="28" fill="white" transform="matrix(-1 0 0 1 28 0)"/>
</clipPath>
</defs>
</svg>
