<svg width="282" height="88" viewBox="0 0 282 88" fill="none" xmlns="http://www.w3.org/2000/svg">
<g clip-path="url(#clip0_36_108)">
<path d="M23.18 77.75C23.35 76.98 23.97 76.29 24.76 76.29C29.46 76.31 31.61 74.27 32.16 72.81C33.9 68.2 26.66 63.03 29.68 48.12C32.53 34.04 49.7 26.58 42.29 13.51C41.63 12.34 43.02 11.1 44.11 11.89C57.08 21.37 66.96 39.27 63.16 53.42C60.93 61.12 57.06 65.07 50.69 67.81C49.55 68.3 48.47 67 49.17 65.97C52.54 61.02 55.58 52.54 52.7 41.12C52.34 39.68 50.21 39.98 50.25 41.47C50.96 66.28 36.5 78.9 23.19 77.75H23.18Z" fill="#664F34"/>
<path d="M30.1 16.4C21.89 16.6 -1.34 44.68 16 67.62C19.98 72.88 27.61 70.26 25.17 59.39C21.14 41.44 35.06 32.5 36.89 27.65C38.72 22.8 38.32 16.2 30.11 16.4H30.1Z" fill="#A69480"/>
<path d="M101.51 46.09C101.51 47.55 101.06 48.8 100.17 49.85C99.28 50.9 98.05 51.6 96.47 51.95C95.23 52.23 94.05 52.4 92.95 52.45C91.85 52.5 88.61 52.52 83.23 52.52C82.48 52.52 82.03 52.51 81.89 52.48C81.75 52.46 81.68 52.37 81.68 52.23C81.68 52.02 82.06 51.91 82.82 51.91C83.58 51.91 84.06 51.8 84.25 51.58C84.44 51.36 84.53 50.81 84.53 49.94V29.77C84.53 29.09 83.98 28.73 82.89 28.71C82.06 28.69 81.64 28.59 81.64 28.41C81.64 28.21 81.9 28.11 82.41 28.11H92.31C97.73 28.11 100.45 29.97 100.45 33.69C100.45 36.77 98.43 38.68 94.39 39.41L94.32 39.55C96.69 40.04 98.34 40.67 99.25 41.42C100.75 42.67 101.5 44.22 101.5 46.08L101.51 46.09ZM95.88 45.93C95.88 42.62 94.94 40.69 93.06 40.15C92.32 39.94 91.25 39.83 89.86 39.83V41.87C89.86 42.46 89.84 43.29 89.79 44.37C89.77 44.91 89.75 45.92 89.75 47.4C89.75 49.94 89.82 51.29 89.96 51.45C90.15 51.71 90.68 51.84 91.54 51.84C94.43 51.84 95.87 49.87 95.87 45.92L95.88 45.93ZM95.21 33.89C95.21 30.49 94.17 28.78 92.1 28.78C91.36 28.78 90.87 28.82 90.61 28.89C90.1 29.06 89.85 29.42 89.85 29.98V39.28C91.9 39.28 93.3 38.92 94.06 38.19C94.82 37.46 95.2 36.03 95.2 33.89H95.21Z" fill="#664F34"/>
<path d="M120.07 48.15C120.07 48.67 119.76 49.35 119.15 50.19C117.84 52 116.12 52.9 114.01 52.9C111.64 52.9 109.69 52.15 108.16 50.65C106.63 49.15 105.87 47.22 105.87 44.87C105.87 42.52 106.61 40.65 108.09 39.11C109.57 37.57 111.41 36.8 113.62 36.8C115.12 36.8 116.4 37.13 117.46 37.79C118.63 38.52 119.4 39.56 119.75 40.92C119.84 41.34 119.91 41.85 119.96 42.43C119.42 42.49 117.25 42.54 113.44 42.57C112.85 42.57 112.11 42.59 111.22 42.64C111.15 43.48 111.11 44.19 111.11 44.78C111.11 47.52 111.68 49.46 112.84 50.6C113.52 51.28 114.35 51.62 115.34 51.62C116.16 51.62 116.95 51.34 117.72 50.78C118.48 50.22 119.06 49.49 119.46 48.6C119.65 48.15 119.8 47.93 119.92 47.93C120.01 47.93 120.06 48 120.06 48.14L120.07 48.15ZM115.63 41.99C115.65 40.2 115.52 38.95 115.24 38.25C114.96 37.55 114.47 37.2 113.76 37.2C112.33 37.2 111.51 38.8 111.3 41.99H115.63Z" fill="#664F34"/>
<path d="M138.95 50.59C138.95 50.78 138.76 51.04 138.39 51.38C137.38 52.31 136.14 52.77 134.66 52.77C133.7 52.77 133 52.57 132.56 52.16C132.13 51.76 131.84 51.03 131.7 49.98C130.64 51.91 129.2 52.87 127.37 52.87C126.36 52.87 125.54 52.55 124.92 51.92C124.3 51.29 123.99 50.46 123.99 49.45C123.99 46.49 126.53 44.74 131.6 44.2V43.46C131.6 41.11 131.52 39.67 131.35 39.13L131.31 38.95C130.98 37.78 130.15 37.19 128.81 37.19C128.03 37.19 127.41 37.41 126.94 37.86C126.47 38.31 126.24 38.74 126.24 39.16C126.24 39.4 126.52 39.54 127.09 39.58C127.93 39.65 128.36 40.17 128.36 41.13C128.36 41.65 128.19 42.08 127.85 42.42C127.51 42.76 127.07 42.93 126.53 42.93C125.85 42.93 125.29 42.72 124.86 42.31C124.43 41.9 124.21 41.38 124.21 40.74C124.21 39.73 124.71 38.82 125.72 37.99C126.73 37.17 128.06 36.76 129.7 36.76C132.14 36.76 133.84 37.19 134.81 38.06C135.58 38.79 135.97 40.06 135.97 41.86V47.88C135.97 49.05 135.98 49.73 136.01 49.92C136.13 50.91 136.47 51.4 137.03 51.4C137.43 51.4 137.92 51.12 138.51 50.56C138.63 50.44 138.72 50.38 138.79 50.38C138.91 50.38 138.97 50.44 138.97 50.56L138.95 50.59ZM131.59 46.39V44.66C129.31 45.11 128.17 46.4 128.17 48.53C128.17 50.17 128.73 50.99 129.86 50.99C130.49 50.99 130.94 50.64 131.2 49.93C131.46 49.23 131.59 48.04 131.59 46.37V46.39Z" fill="#664F34"/>
<path d="M159.52 52.24C159.52 52.43 159.23 52.52 158.64 52.52H151.1C150.77 52.52 150.61 52.43 150.61 52.26C150.61 52.11 150.75 52.03 151.03 52.03H151.31C151.91 52.03 152.26 51.95 152.36 51.8C152.46 51.65 152.52 51.12 152.52 50.22V43.39C152.52 40.87 152.36 39.35 152.03 38.86C151.75 38.44 151.26 38.22 150.54 38.22C149.82 38.22 149.23 38.44 148.77 38.89C148.31 39.34 148.08 39.9 148.08 40.58V51.23C148.13 51.51 148.23 51.69 148.38 51.77C148.53 51.85 148.91 51.9 149.52 51.93C149.71 51.93 149.8 52 149.8 52.14C149.8 52.28 149.72 52.36 149.55 52.39C149.38 52.41 148.8 52.43 147.79 52.43C146.78 52.43 145.95 52.44 145.29 52.47C144 52.52 142.68 52.54 141.35 52.54C141.07 52.54 140.93 52.46 140.93 52.29C140.93 52.1 141.29 52.01 142 52.01C142.71 52.01 143.13 51.87 143.25 51.59L143.36 51.1V43.02C143.36 40.75 143.34 39.57 143.29 39.47C143.22 39.12 142.9 38.94 142.34 38.94H141.14C140.76 38.94 140.58 38.86 140.58 38.71C140.58 38.56 140.72 38.47 141 38.45C143.62 38.33 145.71 37.78 147.27 36.79C147.46 36.7 147.58 36.65 147.65 36.65C147.84 36.65 147.93 36.84 147.93 37.21V39.22C149.17 37.6 150.77 36.79 152.72 36.79C154.67 36.79 156.05 37.49 156.66 38.9C156.92 39.49 157.08 40.15 157.14 40.87C157.2 41.59 157.23 43.1 157.23 45.38V50.49C157.23 51.22 157.29 51.65 157.41 51.78C157.53 51.91 157.91 51.97 158.55 51.97C159.19 51.97 159.52 52.06 159.52 52.25V52.24Z" fill="#664F34"/>
<path d="M170.54 46.96C170.54 44.17 172.28 42.61 173.24 42.19C172.64 41.38 172.38 40.47 172.38 39.42C172.38 37.7 173.71 36.07 175.87 36.07C177.15 36.07 178.12 36.77 178.12 37.91C178.12 38.91 177.31 39.45 177.03 39.45C176.94 39.45 176.91 39.29 176.96 39.03C177.15 38.05 176.36 37.45 175.56 37.45C174.3 37.45 173.33 38.54 173.33 40.12C173.33 40.77 173.54 41.45 173.91 41.96C174.12 41.89 174.38 41.84 174.72 41.84C175.14 41.84 175.91 42.05 175.91 42.4C175.91 42.96 175.61 43.49 175.24 43.49C174.87 43.49 174.12 43.19 173.94 43.03C173.64 42.77 173.54 42.73 173.24 42.91C172.45 43.42 171.89 44.63 171.89 46.05C171.89 48.91 174.4 51.21 178.7 51.21C183 51.21 185.21 48.44 185.21 46.23C185.21 44.39 183.79 42.6 181.75 42.6C179.91 42.6 179.56 44.27 179.56 44.74C179.56 45.81 180.09 46.41 180.3 46.41C180.42 46.41 180.51 46.27 180.51 46.06C180.51 45.78 180.79 45.13 181.51 45.13C182.18 45.13 182.6 45.62 182.6 46.32C182.6 46.72 182.23 47.46 181.18 47.46C180.27 47.46 178.71 46.55 178.71 44.6C178.71 43.04 179.83 41.3 182.27 41.3C183.15 41.3 184.34 41.46 184.76 41.46C187.27 41.46 188.48 40.72 188.48 39.41C188.48 38.57 187.78 37.78 187.15 37.78C186.85 37.78 186.85 38.08 186.89 38.29C186.94 38.59 186.7 39.27 185.94 39.27C185.18 39.27 184.94 38.73 184.94 38.43C184.94 37.45 185.85 36.99 186.71 36.99C188.29 36.99 189.38 38.2 189.38 39.43C189.38 41.59 187.94 42.66 185.59 42.96C185.05 43.03 185.01 43.19 185.26 43.59C185.56 44.06 186.1 44.99 186.1 46.61C186.1 50.56 182.61 52.94 178.61 52.94C172.12 52.94 170.52 49.31 170.52 46.94L170.54 46.96Z" fill="#664F34"/>
<path d="M218.55 46.5C218.55 46.95 218.54 47.32 218.51 47.63C218.42 48.66 218.38 49.5 218.4 50.13L218.44 52.63C215.43 52.51 210 52.45 202.13 52.45H200.65C199.62 52.45 199.1 52.35 199.1 52.15C199.1 51.95 199.26 51.85 199.59 51.85C200.76 51.83 201.51 51.66 201.84 51.36C202.05 51.17 202.16 50.61 202.16 49.67V30.61C202.16 29.81 202.09 29.32 201.95 29.13C201.66 28.78 201.22 28.61 200.63 28.64H199.74C199.48 28.64 199.35 28.55 199.35 28.38C199.35 28.21 199.51 28.12 199.84 28.12H209.74C209.97 28.12 210.09 28.21 210.09 28.4C210.09 28.61 209.78 28.72 209.17 28.72C208.3 28.72 207.79 28.83 207.64 29.04C207.49 29.25 207.41 30.18 207.41 31.82V40.2C207.41 41.91 207.46 45.75 207.55 51.72C208 51.74 208.5 51.76 209.06 51.76C211.52 51.76 213.23 51.67 214.17 51.48C215.65 51.18 216.66 50.42 217.2 49.23C217.48 48.62 217.74 47.65 217.97 46.31C218.04 45.93 218.15 45.75 218.29 45.75C218.45 45.75 218.54 46.01 218.54 46.52L218.55 46.5Z" fill="#664F34"/>
<path d="M235.18 48.15C235.18 48.67 234.87 49.35 234.26 50.19C232.95 52 231.23 52.9 229.12 52.9C226.75 52.9 224.8 52.15 223.27 50.65C221.74 49.15 220.98 47.22 220.98 44.87C220.98 42.52 221.72 40.65 223.2 39.11C224.68 37.57 226.52 36.8 228.73 36.8C230.23 36.8 231.51 37.13 232.57 37.79C233.74 38.52 234.51 39.56 234.86 40.92C234.95 41.34 235.02 41.85 235.07 42.43C234.53 42.49 232.36 42.54 228.55 42.57C227.96 42.57 227.22 42.59 226.33 42.64C226.26 43.48 226.22 44.19 226.22 44.78C226.22 47.52 226.79 49.46 227.95 50.6C228.63 51.28 229.46 51.62 230.45 51.62C231.27 51.62 232.06 51.34 232.83 50.78C233.59 50.22 234.17 49.49 234.57 48.6C234.76 48.15 234.91 47.93 235.03 47.93C235.12 47.93 235.17 48 235.17 48.14L235.18 48.15ZM230.74 41.99C230.76 40.2 230.63 38.95 230.35 38.25C230.07 37.55 229.58 37.2 228.87 37.2C227.44 37.2 226.62 38.8 226.41 41.99H230.74Z" fill="#664F34"/>
<path d="M254.06 50.59C254.06 50.78 253.87 51.04 253.5 51.38C252.49 52.31 251.25 52.77 249.77 52.77C248.81 52.77 248.11 52.57 247.67 52.16C247.24 51.76 246.95 51.03 246.81 49.98C245.75 51.91 244.31 52.87 242.48 52.87C241.47 52.87 240.65 52.55 240.03 51.92C239.41 51.29 239.1 50.46 239.1 49.45C239.1 46.49 241.64 44.74 246.71 44.2V43.46C246.71 41.11 246.63 39.67 246.46 39.13L246.42 38.95C246.09 37.78 245.26 37.19 243.92 37.19C243.14 37.19 242.52 37.41 242.05 37.86C241.58 38.31 241.35 38.74 241.35 39.16C241.35 39.4 241.63 39.54 242.2 39.58C243.04 39.65 243.47 40.17 243.47 41.13C243.47 41.65 243.3 42.08 242.96 42.42C242.62 42.76 242.18 42.93 241.64 42.93C240.96 42.93 240.4 42.72 239.97 42.31C239.54 41.9 239.32 41.38 239.32 40.74C239.32 39.73 239.82 38.82 240.83 37.99C241.84 37.17 243.17 36.76 244.81 36.76C247.25 36.76 248.95 37.19 249.92 38.06C250.69 38.79 251.08 40.06 251.08 41.86V47.88C251.08 49.05 251.09 49.73 251.12 49.92C251.24 50.91 251.58 51.4 252.14 51.4C252.54 51.4 253.03 51.12 253.62 50.56C253.74 50.44 253.83 50.38 253.9 50.38C254.02 50.38 254.08 50.44 254.08 50.56L254.06 50.59ZM246.7 46.39V44.66C244.42 45.11 243.28 46.4 243.28 48.53C243.28 50.17 243.84 50.99 244.97 50.99C245.6 50.99 246.05 50.64 246.31 49.93C246.57 49.23 246.7 48.04 246.7 46.37V46.39Z" fill="#664F34"/>
<path d="M270.47 31.04C270.47 31.65 270.28 32.16 269.89 32.55C269.5 32.95 269 33.15 268.39 33.15C267.78 33.15 267.28 32.97 266.89 32.6C266.5 32.24 266.31 31.78 266.31 31.24C266.31 30.79 266.54 30.18 267.01 29.41C267.1 29.29 267.15 29.13 267.15 28.92C267.15 28.38 266.81 28.11 266.13 28.11C265.59 28.11 265.12 28.4 264.72 28.99C264.37 29.46 264.12 30.01 263.98 30.65C263.84 31.28 263.77 32.4 263.77 34V37.21H266.27C266.55 37.21 266.69 37.3 266.69 37.48C266.69 37.59 266.62 37.67 266.48 37.71C266.27 37.78 265.81 37.81 265.11 37.81H263.77V50.21C263.77 50.98 263.79 51.43 263.84 51.54C263.96 51.8 264.32 51.92 264.93 51.89H265.95C266.26 51.89 266.41 52 266.41 52.21C266.41 52.4 266.26 52.49 265.95 52.49C265.81 52.49 265.62 52.48 265.39 52.45C264.69 52.38 263.79 52.34 262.71 52.34C262.24 52.34 261.28 52.36 259.82 52.41C258.36 52.46 257.57 52.48 257.43 52.48H256.94C256.66 52.48 256.52 52.4 256.52 52.23C256.52 52.04 256.92 51.94 257.72 51.91C258.35 51.89 258.72 51.81 258.83 51.68C258.94 51.55 258.99 51.1 258.99 50.32V37.79H257.12C256.77 37.79 256.59 37.69 256.59 37.49C256.59 37.33 256.67 37.25 256.84 37.22C257 37.2 257.56 37.19 258.5 37.19H258.99V36.45C258.99 35.04 259.24 33.67 259.73 32.33C260.22 30.99 260.87 29.96 261.67 29.23C262.82 28.17 264.25 27.65 265.97 27.65C267.31 27.65 268.39 27.96 269.23 28.58C270.06 29.2 270.48 30.02 270.48 31.03L270.47 31.04Z" fill="#664F34"/>
<path d="M106.76 68.55V68.7C106.76 68.7 106.74 68.91 106.71 69.25C106.69 69.51 106.67 69.71 106.67 69.85C106.67 70.03 106.67 70.17 106.67 70.29C106.67 70.33 106.67 70.38 106.67 70.44C106.67 70.5 106.66 70.54 106.63 70.54C106.6 70.54 106.57 70.51 106.53 70.45C106.4 70.24 106.26 70.1 106.12 70.04C105.68 70.42 105.21 70.6 104.7 70.6C103.93 70.6 103.25 70.31 102.66 69.74C102.04 69.13 101.73 68.36 101.73 67.43C101.73 66.5 102.01 65.78 102.57 65.18C103.13 64.58 103.83 64.28 104.67 64.28C105.06 64.28 105.4 64.37 105.71 64.55C105.89 64.65 106.02 64.7 106.1 64.7C106.22 64.7 106.34 64.65 106.44 64.53C106.52 64.45 106.56 64.41 106.58 64.41C106.6 64.41 106.62 64.43 106.62 64.47C106.62 64.49 106.62 64.51 106.62 64.55C106.58 64.75 106.57 65 106.57 65.29C106.57 65.32 106.57 65.44 106.57 65.65V66.26C106.57 66.37 106.54 66.42 106.48 66.42C106.43 66.42 106.39 66.3 106.34 66.08C106.13 65.02 105.64 64.49 104.89 64.49C104.29 64.49 103.86 64.88 103.59 65.65C103.4 66.18 103.31 66.81 103.31 67.55C103.31 68.65 103.53 69.45 103.98 69.96C104.21 70.23 104.52 70.36 104.91 70.36C105.74 70.36 106.28 69.81 106.54 68.7C106.58 68.52 106.63 68.43 106.68 68.43C106.74 68.43 106.77 68.47 106.76 68.55Z" fill="#A69480"/>
<path d="M116.56 67.44C116.56 68.32 116.29 69.06 115.74 69.67C115.19 70.28 114.52 70.58 113.72 70.58C112.92 70.58 112.27 70.27 111.71 69.65C111.15 69.03 110.87 68.29 110.87 67.42C110.87 66.55 111.15 65.78 111.7 65.18C112.26 64.58 112.94 64.28 113.77 64.28C114.6 64.28 115.23 64.58 115.76 65.18C116.29 65.78 116.56 66.53 116.56 67.42V67.44ZM115.01 67.58C115.01 66.41 114.87 65.55 114.6 64.99C114.42 64.63 114.13 64.45 113.74 64.45C113.35 64.45 113.02 64.71 112.78 65.22C112.54 65.73 112.42 66.41 112.42 67.27C112.42 68.51 112.63 69.44 113.05 70.06C113.23 70.32 113.48 70.45 113.82 70.45C114.21 70.45 114.48 70.27 114.64 69.9C114.89 69.33 115.01 68.56 115.01 67.6V67.58Z" fill="#A69480"/>
<path d="M125.27 65.91C125.27 65.91 125.25 65.98 125.21 65.98C125.17 65.98 125.15 65.96 125.13 65.94C125.11 65.92 125.09 65.81 125.05 65.64C124.93 65.17 124.71 64.85 124.37 64.7C124.17 64.61 123.81 64.56 123.3 64.56C123.06 64.56 122.79 64.56 122.49 64.59V67.29H122.75C123.3 67.29 123.65 67.23 123.79 67.11C123.93 66.99 124.03 66.67 124.1 66.13C124.11 66.05 124.14 66.01 124.19 66.01C124.24 66.01 124.26 66.05 124.26 66.14C124.26 66.11 124.26 66.14 124.26 66.26C124.26 66.38 124.26 66.55 124.26 66.79V67.36C124.26 67.77 124.26 68.04 124.26 68.17C124.26 68.3 124.26 68.42 124.26 68.51C124.26 68.6 124.23 68.65 124.18 68.65C124.1 68.65 124.06 68.56 124.05 68.37C124.02 67.94 123.91 67.66 123.73 67.53C123.64 67.47 123.48 67.43 123.26 67.43C122.96 67.43 122.7 67.43 122.49 67.43V69.56C122.49 69.94 122.52 70.16 122.58 70.22C122.64 70.28 122.84 70.32 123.19 70.32C123.3 70.32 123.35 70.34 123.35 70.39C123.35 70.44 123.29 70.47 123.18 70.47C123.05 70.47 122.89 70.47 122.71 70.47C122.35 70.46 121.94 70.45 121.48 70.45C121.16 70.45 120.87 70.45 120.63 70.47C120.59 70.47 120.55 70.47 120.51 70.47C120.44 70.47 120.4 70.44 120.4 70.4C120.4 70.36 120.49 70.32 120.68 70.32C120.96 70.31 121.11 70.24 121.14 70.13C121.16 70.08 121.18 70 121.18 69.88V64.77C121.17 64.69 121.13 64.63 121.08 64.6C121.02 64.57 120.91 64.55 120.74 64.54C120.57 64.53 120.49 64.5 120.49 64.46C120.49 64.4 120.55 64.37 120.67 64.37H120.84C120.84 64.37 121.09 64.37 121.51 64.37C121.98 64.36 122.39 64.35 122.75 64.35C123.28 64.35 123.74 64.35 124.11 64.35L124.72 64.38C124.81 64.38 124.95 64.38 125.14 64.35C125.19 65.05 125.23 65.53 125.28 65.8C125.28 65.83 125.28 65.87 125.28 65.9L125.27 65.91Z" fill="#A69480"/>
<path d="M133.75 65.91C133.75 65.91 133.73 65.98 133.69 65.98C133.65 65.98 133.63 65.96 133.61 65.94C133.59 65.92 133.57 65.81 133.53 65.64C133.41 65.17 133.19 64.85 132.85 64.7C132.65 64.61 132.29 64.56 131.78 64.56C131.54 64.56 131.27 64.56 130.97 64.59V67.29H131.23C131.78 67.29 132.13 67.23 132.27 67.11C132.41 66.99 132.51 66.67 132.58 66.13C132.59 66.05 132.62 66.01 132.67 66.01C132.72 66.01 132.74 66.05 132.74 66.14C132.74 66.11 132.74 66.14 132.74 66.26C132.74 66.38 132.74 66.55 132.74 66.79V67.36C132.74 67.77 132.74 68.04 132.74 68.17C132.74 68.3 132.74 68.42 132.74 68.51C132.74 68.6 132.71 68.65 132.66 68.65C132.58 68.65 132.54 68.56 132.53 68.37C132.5 67.94 132.39 67.66 132.21 67.53C132.12 67.47 131.96 67.43 131.74 67.43C131.44 67.43 131.18 67.43 130.97 67.43V69.56C130.97 69.94 131 70.16 131.06 70.22C131.12 70.28 131.32 70.32 131.67 70.32C131.78 70.32 131.83 70.34 131.83 70.39C131.83 70.44 131.77 70.47 131.66 70.47C131.53 70.47 131.37 70.47 131.19 70.47C130.83 70.46 130.42 70.45 129.96 70.45C129.64 70.45 129.35 70.45 129.11 70.47C129.07 70.47 129.03 70.47 128.99 70.47C128.92 70.47 128.88 70.44 128.88 70.4C128.88 70.36 128.97 70.32 129.16 70.32C129.44 70.31 129.59 70.24 129.62 70.13C129.64 70.08 129.66 70 129.66 69.88V64.77C129.65 64.69 129.61 64.63 129.56 64.6C129.5 64.57 129.39 64.55 129.22 64.54C129.05 64.53 128.97 64.5 128.97 64.46C128.97 64.4 129.03 64.37 129.15 64.37H129.32C129.32 64.37 129.57 64.37 129.99 64.37C130.46 64.36 130.87 64.35 131.23 64.35C131.76 64.35 132.22 64.35 132.59 64.35L133.2 64.38C133.29 64.38 133.43 64.38 133.62 64.35C133.67 65.05 133.71 65.53 133.76 65.8C133.76 65.83 133.76 65.87 133.76 65.9L133.75 65.91Z" fill="#A69480"/>
<path d="M142.36 68.94C142.36 68.94 142.36 69.23 142.36 69.76C142.36 70.04 142.36 70.24 142.35 70.37C142.34 70.5 142.35 70.55 142.35 70.55C140.8 70.48 139.44 70.46 138.28 70.49H137.54C137.43 70.49 137.38 70.47 137.38 70.42C137.38 70.39 137.39 70.37 137.42 70.36C137.45 70.36 137.54 70.35 137.69 70.33C137.97 70.31 138.12 70.23 138.14 70.09C138.15 70.01 138.16 69.93 138.16 69.84V65.38C138.16 65.03 138.16 64.84 138.16 64.8C138.16 64.71 138.12 64.64 138.07 64.61C138.02 64.57 137.91 64.56 137.74 64.56C137.56 64.56 137.47 64.53 137.47 64.48C137.47 64.42 137.55 64.39 137.71 64.39C137.87 64.39 138.1 64.39 138.38 64.39C139.46 64.37 140.34 64.36 141.03 64.37H141.63C141.76 64.37 141.92 64.37 142.11 64.34L142.19 65.3C142.22 65.6 142.23 65.79 142.23 65.86C142.23 65.92 142.2 65.95 142.14 65.95C142.08 65.95 142.04 65.87 142.02 65.72C141.97 65.32 141.8 65.02 141.53 64.84C141.26 64.66 140.85 64.56 140.31 64.56C140.14 64.56 139.86 64.56 139.46 64.59V67.19C140.11 67.19 140.52 67.15 140.69 67.05C140.86 66.95 140.97 66.7 141.03 66.3C141.06 66.08 141.1 65.97 141.16 65.97C141.21 65.97 141.24 66.02 141.24 66.13C141.24 66.24 141.24 66.45 141.21 66.78C141.21 66.89 141.21 67.04 141.21 67.23C141.21 67.73 141.21 68.12 141.23 68.37C141.23 68.41 141.23 68.45 141.23 68.5C141.23 68.57 141.2 68.61 141.15 68.61C141.11 68.61 141.08 68.6 141.07 68.57C141.06 68.54 141.04 68.45 141.02 68.28C140.96 67.86 140.88 67.6 140.78 67.5C140.68 67.4 140.44 67.35 140.07 67.35H139.47V70.31H140.04C140.69 70.3 141.08 70.28 141.22 70.27C141.4 70.25 141.57 70.18 141.73 70.08C141.88 69.96 141.98 69.84 142.04 69.7C142.1 69.57 142.16 69.32 142.22 68.95C142.24 68.86 142.27 68.82 142.31 68.82C142.36 68.82 142.38 68.86 142.38 68.95L142.36 68.94Z" fill="#A69480"/>
<path d="M151.12 68.94C151.12 68.94 151.12 69.23 151.12 69.76C151.12 70.04 151.12 70.24 151.11 70.37C151.1 70.5 151.11 70.55 151.11 70.55C149.56 70.48 148.2 70.46 147.04 70.49H146.3C146.19 70.49 146.14 70.47 146.14 70.42C146.14 70.39 146.15 70.37 146.18 70.36C146.21 70.35 146.3 70.35 146.45 70.33C146.73 70.31 146.88 70.23 146.9 70.09C146.91 70.01 146.92 69.93 146.92 69.84V65.38C146.92 65.03 146.92 64.84 146.92 64.8C146.92 64.71 146.88 64.64 146.83 64.61C146.78 64.58 146.67 64.56 146.5 64.56C146.32 64.56 146.23 64.53 146.23 64.48C146.23 64.42 146.31 64.39 146.47 64.39C146.63 64.39 146.86 64.39 147.14 64.39C148.22 64.37 149.1 64.36 149.79 64.37H150.39C150.52 64.37 150.68 64.37 150.87 64.34L150.95 65.3C150.98 65.6 150.99 65.79 150.99 65.86C150.99 65.92 150.96 65.95 150.9 65.95C150.84 65.95 150.8 65.87 150.78 65.72C150.73 65.32 150.56 65.02 150.29 64.84C150.02 64.65 149.61 64.56 149.07 64.56C148.9 64.56 148.62 64.56 148.22 64.59V67.19C148.87 67.19 149.28 67.15 149.45 67.05C149.62 66.95 149.73 66.7 149.79 66.3C149.82 66.08 149.86 65.97 149.92 65.97C149.97 65.97 150 66.02 150 66.13C150 66.24 150 66.45 149.97 66.78C149.97 66.89 149.97 67.04 149.97 67.23C149.97 67.73 149.97 68.12 149.99 68.37C149.99 68.41 149.99 68.45 149.99 68.5C149.99 68.57 149.96 68.61 149.91 68.61C149.87 68.61 149.84 68.6 149.83 68.57C149.82 68.54 149.8 68.45 149.78 68.28C149.72 67.86 149.64 67.6 149.54 67.5C149.44 67.4 149.2 67.35 148.83 67.35H148.23V70.31H148.8C149.45 70.3 149.84 70.28 149.98 70.27C150.16 70.25 150.33 70.18 150.49 70.08C150.64 69.96 150.74 69.84 150.79 69.7C150.84 69.56 150.91 69.32 150.97 68.95C150.99 68.86 151.02 68.82 151.06 68.82C151.11 68.82 151.13 68.86 151.13 68.95L151.12 68.94Z" fill="#A69480"/>
<path d="M165.74 70.39C165.74 70.39 165.72 70.46 165.67 70.47C165.63 70.47 165.51 70.48 165.33 70.48C165.28 70.48 165.15 70.48 164.93 70.48C164.5 70.47 164.2 70.46 164.03 70.46C163.84 70.46 163.67 70.46 163.52 70.46C163.23 70.47 163.03 70.48 162.92 70.48C162.76 70.48 162.68 70.45 162.68 70.39C162.68 70.33 162.85 70.3 163.18 70.29C163.26 70.29 163.32 70.29 163.36 70.27C163.45 70.26 163.5 70.22 163.5 70.16C163.5 70.13 163.46 70.01 163.39 69.79L163.21 69.22C163.17 69.09 163.1 68.85 162.98 68.51H162.13C161.88 68.51 161.62 68.51 161.35 68.51C161.3 68.63 161.2 68.89 161.05 69.3L160.86 69.87C160.83 69.96 160.82 70.03 160.82 70.08C160.82 70.18 160.88 70.25 161.01 70.28C161.04 70.28 161.18 70.3 161.44 70.32C161.52 70.32 161.56 70.35 161.56 70.39C161.56 70.44 161.51 70.46 161.4 70.46H159.83C159.75 70.46 159.71 70.43 159.71 70.37C159.71 70.33 159.8 70.31 159.98 70.3C160.21 70.29 160.36 70.25 160.43 70.17C160.49 70.09 160.6 69.85 160.75 69.43C160.86 69.14 161.02 68.7 161.23 68.13L162.3 65.2C162.35 65.07 162.43 64.87 162.52 64.59C162.58 64.39 162.63 64.29 162.67 64.29C162.71 64.29 162.77 64.42 162.86 64.7C162.98 65.05 163.49 66.41 164.41 68.81C164.53 69.11 164.65 69.43 164.76 69.74C164.86 70.01 164.96 70.17 165.06 70.23C165.14 70.28 165.32 70.3 165.61 70.29C165.68 70.29 165.72 70.32 165.72 70.37L165.74 70.39ZM162.94 68.33C162.94 68.33 162.91 68.26 162.88 68.16C162.64 67.48 162.47 67 162.37 66.73C162.34 66.65 162.3 66.54 162.25 66.39L162.19 66.23C162.09 66.48 161.96 66.83 161.8 67.28C161.63 67.78 161.51 68.13 161.43 68.33H162.94Z" fill="#A69480"/>
<path d="M175.08 64.48C175.08 64.48 175.06 64.53 175.01 64.53C174.96 64.53 174.81 64.55 174.55 64.56C174.39 64.56 174.31 64.6 174.28 64.66C174.26 64.7 174.25 64.88 174.25 65.22V70.41C174.25 70.51 174.23 70.56 174.19 70.56C174.13 70.56 173.7 70.08 172.91 69.1C172.12 68.12 171.25 67.02 170.31 65.77V70.04C170.31 70.16 170.35 70.24 170.43 70.27C170.55 70.32 170.7 70.34 170.87 70.34C171.07 70.34 171.18 70.35 171.2 70.38C171.2 70.38 171.2 70.4 171.2 70.42C171.2 70.47 171.16 70.49 171.07 70.49C171.02 70.49 170.97 70.49 170.94 70.49C170.59 70.48 170.37 70.47 170.28 70.47C170.07 70.47 169.8 70.47 169.47 70.49C169.3 70.49 169.23 70.49 169.26 70.49C169.17 70.49 169.13 70.47 169.13 70.42C169.13 70.38 169.26 70.35 169.52 70.33C169.82 70.31 169.99 70.26 170.04 70.19C170.07 70.14 170.08 69.93 170.08 69.56V65.94C170.08 65.57 170.08 65.35 170.06 65.27C170.02 65.01 169.92 64.82 169.75 64.71C169.62 64.62 169.38 64.57 169.03 64.56C168.94 64.56 168.89 64.52 168.89 64.48C168.89 64.42 168.93 64.4 169.01 64.4C169.05 64.4 169.17 64.4 169.39 64.42C169.5 64.42 169.65 64.42 169.87 64.42C170.3 64.42 170.66 64.42 170.93 64.39L174.02 68.37V64.87C174.02 64.73 174 64.64 173.95 64.6C173.9 64.56 173.8 64.54 173.65 64.53L173.27 64.51C173.2 64.51 173.16 64.48 173.16 64.45C173.16 64.4 173.21 64.38 173.32 64.38H173.89C174.48 64.38 174.83 64.38 174.93 64.38C175.03 64.38 175.08 64.41 175.08 64.46V64.48Z" fill="#A69480"/>
<path d="M184.58 67.4C184.58 68.07 184.43 68.65 184.12 69.14C183.8 69.65 183.34 70.02 182.74 70.26C182.33 70.42 181.72 70.5 180.9 70.5H178.75C178.66 70.5 178.62 70.48 178.62 70.43C178.62 70.37 178.7 70.35 178.87 70.35C179.12 70.35 179.28 70.31 179.33 70.22C179.35 70.18 179.37 70 179.37 69.68V65.2C179.37 64.94 179.35 64.78 179.32 64.72C179.26 64.61 179.11 64.57 178.87 64.57C178.74 64.57 178.68 64.55 178.68 64.48C178.68 64.43 178.72 64.4 178.8 64.4H178.96C179.31 64.4 179.65 64.4 179.98 64.4C180.45 64.4 180.81 64.4 181.07 64.4C182.14 64.4 182.96 64.62 183.53 65.06C184.24 65.61 184.6 66.39 184.6 67.39L184.58 67.4ZM183.06 67.4C183.06 66.43 182.92 65.72 182.63 65.27C182.34 64.82 181.89 64.6 181.27 64.6C181.05 64.6 180.9 64.62 180.83 64.67C180.74 64.73 180.69 64.87 180.69 65.08V69.6C180.69 69.99 180.71 70.2 180.76 70.24C180.83 70.3 180.99 70.34 181.23 70.34C182.45 70.34 183.06 69.36 183.06 67.4Z" fill="#A69480"/>
<path d="M198.44 66.02C198.44 66.02 198.42 66.09 198.38 66.09C198.32 66.09 198.26 65.98 198.2 65.75C198.09 65.3 197.95 65 197.76 64.83C197.57 64.67 197.27 64.59 196.86 64.59H196.45V69.95C196.45 70.1 196.5 70.19 196.57 70.23C196.65 70.27 196.86 70.31 197.19 70.34C197.26 70.34 197.29 70.37 197.29 70.42C197.29 70.48 197.24 70.51 197.15 70.51C197.13 70.51 197.09 70.51 197.02 70.51C196.93 70.51 196.86 70.51 196.8 70.51L195.89 70.48L194.39 70.52C194.31 70.52 194.27 70.5 194.27 70.45C194.27 70.41 194.28 70.39 194.31 70.39C194.34 70.39 194.43 70.38 194.6 70.37C194.92 70.36 195.1 70.28 195.12 70.14C195.13 70.06 195.14 69.46 195.14 68.35V64.61H194.91C194.44 64.61 194.1 64.7 193.88 64.87C193.67 65.04 193.53 65.35 193.46 65.79C193.42 66.05 193.37 66.17 193.3 66.17C193.25 66.17 193.22 66.13 193.22 66.06C193.22 66.01 193.23 65.85 193.26 65.58C193.31 65 193.34 64.61 193.35 64.4H194.13C194.13 64.4 194.35 64.4 194.74 64.41C195.13 64.41 195.63 64.42 196.23 64.42C196.56 64.42 196.86 64.42 197.13 64.42C197.39 64.42 197.63 64.42 197.85 64.42C198.04 64.42 198.19 64.42 198.29 64.41C198.31 64.79 198.35 65.28 198.42 65.87C198.43 65.97 198.44 66.03 198.44 66.06V66.02Z" fill="#A69480"/>
<path d="M206.95 68.94C206.95 68.94 206.95 69.23 206.95 69.76C206.95 70.04 206.94 70.24 206.94 70.37C206.94 70.5 206.94 70.55 206.94 70.55C205.39 70.48 204.03 70.46 202.87 70.49H202.13C202.02 70.49 201.97 70.47 201.97 70.42C201.97 70.39 201.98 70.37 202.01 70.36C202.04 70.36 202.13 70.35 202.28 70.33C202.56 70.31 202.71 70.23 202.73 70.09C202.74 70.01 202.75 69.93 202.75 69.84V65.38C202.75 65.03 202.75 64.84 202.75 64.8C202.75 64.71 202.71 64.64 202.66 64.61C202.61 64.57 202.5 64.56 202.33 64.56C202.15 64.56 202.06 64.53 202.06 64.48C202.06 64.42 202.14 64.39 202.3 64.39C202.46 64.39 202.69 64.39 202.97 64.39C204.05 64.37 204.93 64.36 205.62 64.37H206.22C206.35 64.37 206.51 64.37 206.7 64.34L206.78 65.3C206.81 65.6 206.82 65.79 206.82 65.86C206.82 65.92 206.79 65.95 206.73 65.95C206.67 65.95 206.63 65.87 206.61 65.72C206.56 65.32 206.39 65.02 206.12 64.84C205.85 64.65 205.44 64.56 204.91 64.56C204.74 64.56 204.46 64.56 204.06 64.59V67.19C204.71 67.19 205.12 67.15 205.29 67.05C205.46 66.95 205.57 66.7 205.63 66.3C205.66 66.08 205.7 65.97 205.76 65.97C205.81 65.97 205.84 66.02 205.84 66.13C205.84 66.24 205.84 66.45 205.81 66.78C205.81 66.89 205.81 67.04 205.81 67.23C205.81 67.73 205.81 68.12 205.83 68.37C205.83 68.41 205.83 68.45 205.83 68.5C205.83 68.57 205.8 68.61 205.75 68.61C205.71 68.61 205.68 68.6 205.67 68.57C205.66 68.54 205.64 68.45 205.62 68.28C205.56 67.86 205.48 67.6 205.38 67.5C205.28 67.4 205.04 67.35 204.67 67.35H204.07V70.31H204.64C205.29 70.3 205.68 70.28 205.82 70.27C206 70.25 206.17 70.18 206.33 70.08C206.48 69.96 206.58 69.84 206.64 69.7C206.7 69.57 206.76 69.32 206.82 68.95C206.84 68.86 206.87 68.82 206.91 68.82C206.96 68.82 206.98 68.86 206.98 68.95L206.95 68.94Z" fill="#A69480"/>
<path d="M216.71 70.39C216.71 70.39 216.69 70.46 216.64 70.47C216.6 70.47 216.48 70.48 216.3 70.48C216.25 70.48 216.12 70.48 215.9 70.48C215.47 70.47 215.17 70.46 215 70.46C214.81 70.46 214.64 70.46 214.49 70.46C214.2 70.47 214 70.48 213.89 70.48C213.73 70.48 213.65 70.45 213.65 70.39C213.65 70.33 213.82 70.3 214.15 70.29C214.23 70.29 214.29 70.29 214.34 70.27C214.43 70.26 214.48 70.22 214.48 70.16C214.48 70.13 214.44 70.01 214.37 69.79L214.18 69.22C214.14 69.09 214.07 68.85 213.95 68.51H213.1C212.85 68.51 212.59 68.51 212.32 68.51C212.27 68.63 212.17 68.89 212.02 69.3L211.83 69.87C211.8 69.96 211.79 70.03 211.79 70.08C211.79 70.18 211.86 70.25 211.98 70.28C212.01 70.28 212.15 70.3 212.41 70.32C212.49 70.32 212.53 70.35 212.53 70.39C212.53 70.44 212.48 70.46 212.37 70.46H210.8C210.72 70.46 210.68 70.43 210.68 70.37C210.68 70.33 210.77 70.31 210.95 70.3C211.19 70.29 211.33 70.25 211.4 70.17C211.46 70.09 211.57 69.85 211.72 69.43C211.83 69.14 211.99 68.7 212.21 68.13L213.28 65.2C213.33 65.07 213.41 64.87 213.5 64.59C213.56 64.39 213.61 64.29 213.65 64.29C213.69 64.29 213.75 64.42 213.84 64.7C213.96 65.05 214.47 66.41 215.39 68.81C215.51 69.11 215.63 69.43 215.74 69.74C215.84 70.01 215.94 70.17 216.04 70.23C216.12 70.28 216.3 70.3 216.59 70.29C216.66 70.29 216.7 70.32 216.7 70.37L216.71 70.39ZM213.91 68.33C213.91 68.33 213.88 68.26 213.85 68.16C213.61 67.48 213.44 67 213.34 66.73C213.31 66.65 213.27 66.54 213.22 66.39L213.16 66.23C213.05 66.48 212.93 66.83 212.77 67.28C212.6 67.78 212.48 68.13 212.4 68.33H213.91Z" fill="#A69480"/>
<path d="M230.33 68.55V68.7C230.33 68.7 230.31 68.91 230.28 69.25C230.26 69.51 230.24 69.71 230.24 69.85C230.24 70.03 230.24 70.17 230.24 70.29C230.24 70.33 230.24 70.38 230.24 70.44C230.24 70.5 230.23 70.54 230.2 70.54C230.17 70.54 230.14 70.51 230.1 70.45C229.97 70.24 229.83 70.1 229.69 70.04C229.25 70.42 228.78 70.6 228.27 70.6C227.5 70.6 226.82 70.31 226.23 69.74C225.61 69.13 225.3 68.36 225.3 67.43C225.3 66.5 225.58 65.78 226.14 65.18C226.7 64.58 227.4 64.28 228.24 64.28C228.63 64.28 228.97 64.37 229.28 64.55C229.46 64.65 229.59 64.7 229.67 64.7C229.79 64.7 229.91 64.65 230.01 64.53C230.09 64.45 230.13 64.41 230.15 64.41C230.17 64.41 230.19 64.43 230.19 64.47C230.19 64.49 230.19 64.51 230.19 64.55C230.15 64.75 230.14 65 230.14 65.29C230.14 65.32 230.14 65.44 230.14 65.65V66.26C230.14 66.37 230.11 66.42 230.05 66.42C230 66.42 229.96 66.3 229.91 66.08C229.7 65.02 229.21 64.49 228.46 64.49C227.86 64.49 227.43 64.88 227.16 65.65C226.97 66.18 226.88 66.81 226.88 67.55C226.88 68.65 227.1 69.45 227.55 69.96C227.78 70.23 228.09 70.36 228.47 70.36C229.3 70.36 229.84 69.81 230.1 68.7C230.14 68.52 230.19 68.43 230.24 68.43C230.3 68.43 230.33 68.47 230.32 68.55H230.33Z" fill="#A69480"/>
<path d="M240.13 67.44C240.13 68.32 239.86 69.06 239.31 69.67C238.76 70.28 238.09 70.58 237.29 70.58C236.49 70.58 235.84 70.27 235.28 69.65C234.72 69.03 234.44 68.29 234.44 67.42C234.44 66.55 234.72 65.78 235.27 65.18C235.82 64.58 236.51 64.28 237.34 64.28C238.17 64.28 238.8 64.58 239.33 65.18C239.87 65.78 240.13 66.53 240.13 67.42V67.44ZM238.58 67.58C238.58 66.41 238.44 65.55 238.17 64.99C237.99 64.63 237.7 64.45 237.31 64.45C236.92 64.45 236.59 64.71 236.35 65.22C236.11 65.73 235.99 66.41 235.99 67.27C235.99 68.51 236.2 69.44 236.62 70.06C236.8 70.32 237.05 70.45 237.39 70.45C237.78 70.45 238.05 70.27 238.21 69.9C238.46 69.33 238.58 68.56 238.58 67.6V67.58Z" fill="#A69480"/>
<path d="M245.8 69.93C245.8 70.11 245.74 70.26 245.62 70.38C245.5 70.5 245.35 70.56 245.17 70.56C244.99 70.56 244.84 70.5 244.71 70.38C244.59 70.26 244.53 70.11 244.53 69.93C244.53 69.75 244.59 69.6 244.71 69.47C244.83 69.35 244.99 69.28 245.17 69.28C245.34 69.28 245.49 69.34 245.61 69.47C245.73 69.59 245.8 69.75 245.8 69.93Z" fill="#A69480"/>
</g>
<defs>
<clipPath id="clip0_36_108">
<rect width="281.25" height="87.74" fill="white"/>
</clipPath>
</defs>
</svg>
