<svg width="55" height="67" viewBox="0 0 55 67" fill="none" xmlns="http://www.w3.org/2000/svg">
<path d="M13.4547 66.109C13.6247 65.339 14.2447 64.649 15.0347 64.649C19.7347 64.669 21.8847 62.629 22.4347 61.169C24.1747 56.559 16.9347 51.389 19.9547 36.479C22.8047 22.399 39.9747 14.939 32.5647 1.86901C31.9047 0.699006 33.2947 -0.540994 34.3847 0.249006C47.3547 9.72901 57.2346 27.629 53.4347 41.779C51.2047 49.479 47.3346 53.429 40.9646 56.169C39.8246 56.659 38.7446 55.359 39.4446 54.329C42.8146 49.379 45.8547 40.899 42.9747 29.479C42.6147 28.039 40.4846 28.339 40.5247 29.829C41.2346 54.639 26.7747 67.259 13.4647 66.109H13.4547Z" fill="#664F34"/>
<path d="M20.3747 4.75901C12.1647 4.95901 -11.0653 33.039 6.27465 55.979C10.2547 61.239 17.8847 58.619 15.4447 47.749C11.4147 29.799 25.3347 20.859 27.1647 16.009C28.9947 11.159 28.5947 4.55901 20.3847 4.75901H20.3747Z" fill="#A69480"/>
</svg>
