<svg width="26" height="30" viewBox="0 0 26 30" fill="none" xmlns="http://www.w3.org/2000/svg">
<path d="M21.5766 6.01472C20.0099 4.96058 18.8789 3.27465 18.5263 1.30916C18.45 0.884297 18.4083 0.447409 18.4083 0H13.4076L13.3994 20.675C13.3153 22.9902 11.4684 24.8485 9.2039 24.8485C8.5002 24.8485 7.8373 24.6671 7.25404 24.35C5.9161 23.6235 5.00066 22.1766 5.00066 20.5117C5.00066 18.1203 6.88641 16.1749 9.2039 16.1749C9.63661 16.1749 10.0513 16.2485 10.4442 16.3753V11.1086C10.0377 11.0515 9.62495 11.0159 9.2039 11.0159C4.12893 11.0159 0 15.2755 0 20.5112C0 23.7237 1.556 26.5665 3.92933 28.2855C5.42414 29.3682 7.24287 30.0065 9.2039 30.0065C14.2789 30.0065 18.4078 25.7468 18.4078 20.5112V10.0274C20.3688 11.4798 22.7718 12.3356 25.3646 12.3356V7.17658C23.9679 7.17658 22.6669 6.74821 21.5761 6.01422L21.5766 6.01472Z" fill="#654E33"/>
</svg>
